<svg width="17" height="17" viewBox="0 0 17 17" fill="none"
  xmlns="http://www.w3.org/2000/svg">
  <mask id="mask0_2429_5432" style="mask-type:luminance" maskUnits="userSpaceOnUse" x="0" y="0" width="17" height="17">
    <path d="M8.27883 16.5577C12.8511 16.5577 16.5577 12.8511 16.5577 8.27883C16.5577 3.70656 12.8511 0 8.27883 0C3.70656 0 0 3.70656 0 8.27883C0 12.8511 3.70656 16.5577 8.27883 16.5577Z" fill="white"/>
  </mask>
  <g mask="url(#mask0_2429_5432)">
    <path d="M1.31689 0V10.1604H5.02355L8.27864 4.51573H16.5575V0H1.31689Z" fill="#DB4437"/>
    <path d="M1.31689 0V10.1604H5.02355L8.27864 4.51573H16.5575V0H1.31689Z" fill="url(#paint0_linear_2429_5432)"/>
    <path d="M0 16.5576H7.88371L11.5527 12.8886V10.1603H5.00493L0 1.55225V16.5576Z" fill="#0F9D58"/>
    <path d="M0 16.5576H7.88371L11.5527 12.8886V10.1603H5.00493L0 1.55225V16.5576Z" fill="url(#paint1_linear_2429_5432)"/>
    <path d="M8.2789 4.51611L11.534 10.1608L7.90259 16.5581H16.5577V4.51611H8.2789Z" fill="#FFCD40"/>
    <path d="M8.2789 4.51611L11.534 10.1608L7.90259 16.5581H16.5577V4.51611H8.2789Z" fill="url(#paint2_linear_2429_5432)"/>
    <path d="M5.10822 10.1322L1.31689 3.80078L4.98592 10.1792L5.10822 10.1322Z" fill="#3E2723" fill-opacity="0.1"/>
    <path d="M11.4586 10.2832L11.3834 10.2456L7.87427 16.5488L11.4774 10.2456L11.4586 10.2832Z" fill="#263238" fill-opacity="0.1"/>
    <path d="M8.27881 4.51611V6.49174L15.6545 4.51611H8.27881Z" fill="url(#paint3_radial_2429_5432)"/>
    <path d="M1.31689 3.81055L6.69813 9.19179L5.02355 10.1608L1.31689 3.81055Z" fill="url(#paint4_radial_2429_5432)"/>
    <path d="M7.88379 16.5577L9.85942 9.19141L11.534 10.1604L7.88379 16.5577Z" fill="url(#paint5_radial_2429_5432)"/>
    <path d="M8.27873 12.0423C10.357 12.0423 12.0418 10.3575 12.0418 8.27922C12.0418 6.20091 10.357 4.51611 8.27873 4.51611C6.20042 4.51611 4.51562 6.20091 4.51562 8.27922C4.51562 10.3575 6.20042 12.0423 8.27873 12.0423Z" fill="#F1F1F1"/>
    <path d="M8.27879 11.2895C9.94144 11.2895 11.2893 9.94168 11.2893 8.27904C11.2893 6.61639 9.94144 5.26855 8.27879 5.26855C6.61615 5.26855 5.26831 6.61639 5.26831 8.27904C5.26831 9.94168 6.61615 11.2895 8.27879 11.2895Z" fill="#4285F4"/>
    <path d="M8.27883 16.5577C12.8511 16.5577 16.5577 12.8511 16.5577 8.27883C16.5577 3.70656 12.8511 0 8.27883 0C3.70656 0 0 3.70656 0 8.27883C0 12.8511 3.70656 16.5577 8.27883 16.5577Z" fill="url(#paint6_radial_2429_5432)"/>
    <path d="M11.5339 10.1605C11.2031 10.7308 10.7283 11.2041 10.157 11.5332C9.58578 11.8622 8.93809 12.0354 8.27883 12.0354C7.61957 12.0354 6.97189 11.8622 6.40062 11.5332C5.82935 11.2041 5.35454 10.7308 5.02375 10.1605L0 1.64648L5.02375 10.2546C5.35454 10.8248 5.82935 11.2982 6.40062 11.6272C6.97189 11.9563 7.61957 12.1295 8.27883 12.1295C8.93809 12.1295 9.58578 11.9563 10.157 11.6272C10.7283 11.2982 11.2031 10.8248 11.5339 10.2546V10.1605Z" fill="white" fill-opacity="0.1"/>
    <path d="M8.37291 4.51611H8.32587C9.32391 4.51611 10.2811 4.91258 10.9868 5.6183C11.6925 6.32402 12.089 7.28118 12.089 8.27922C12.089 9.27726 11.6925 10.2344 10.9868 10.9401C10.2811 11.6459 9.32391 12.0423 8.32587 12.0423H8.37291C10.4426 12.0423 12.136 10.3489 12.136 8.27922C12.136 6.20951 10.4426 4.51611 8.37291 4.51611ZM8.27883 16.464C10.4664 16.464 12.565 15.5982 14.1163 14.0558C15.6675 12.5134 16.5452 10.4197 16.5577 8.23218V8.27922C16.5577 10.4749 15.6854 12.5807 14.1328 14.1332C12.5803 15.6858 10.4745 16.5581 8.27883 16.5581C6.08315 16.5581 3.9774 15.6858 2.42481 14.1332C0.872232 12.5807 0 10.4749 0 8.27922V8.23218C0.0124293 10.4197 0.890145 12.5134 2.44138 14.0558C3.99262 15.5982 6.09127 16.464 8.27883 16.464Z" fill="#3E2723" fill-opacity="0.1"/>
    <path d="M11.5715 10.2827C11.8343 9.83187 11.9986 9.33055 12.0537 8.81168C12.1089 8.29282 12.0535 7.76816 11.8914 7.2722C12.0377 7.75177 12.0814 8.25674 12.0199 8.75432C11.9583 9.25189 11.7927 9.73096 11.5339 10.1604L7.9966 16.5577L11.5904 10.3015L11.5715 10.2827ZM8.27883 0.0940776C10.4664 0.0940423 12.565 0.959814 14.1163 2.50224C15.6675 4.04466 16.5452 6.13835 16.5577 8.32587V8.27883C16.5577 6.08315 15.6854 3.9774 14.1328 2.42481C12.5803 0.872232 10.4745 0 8.27883 0C6.08315 0 3.9774 0.872232 2.42481 2.42481C0.872232 3.9774 0 6.08315 0 8.27883V8.32587C0.0124293 6.13835 0.890145 4.04466 2.44138 2.50224C3.99262 0.959814 6.09127 0.0940423 8.27883 0.0940776Z" fill="white" fill-opacity="0.2"/>
    <path d="M8.27873 4.42188C6.20902 4.42188 4.51562 6.11527 4.51562 8.18498V8.27906C4.51562 6.20935 6.20902 4.51595 8.27873 4.51595H16.5576V4.42188H8.27873Z" fill="#3E2723" fill-opacity="0.2"/>
  </g>
  <defs>
    <linearGradient id="paint0_linear_2429_5432" x1="2.00366" y1="6.39728" x2="6.94274" y2="3.5185" gradientUnits="userSpaceOnUse">
      <stop stop-color="#A52714" stop-opacity="0.6"/>
      <stop offset="0.7" stop-color="#A52714" stop-opacity="0"/>
    </linearGradient>
    <linearGradient id="paint1_linear_2429_5432" x1="9.68059" y1="14.8172" x2="4.18646" y2="11.5997" gradientUnits="userSpaceOnUse">
      <stop stop-color="#055524" stop-opacity="0.4"/>
      <stop offset="0.3" stop-color="#055524" stop-opacity="0"/>
    </linearGradient>
    <linearGradient id="paint2_linear_2429_5432" x1="10.8096" y1="4.02691" x2="12.1925" y2="10.0761" gradientUnits="userSpaceOnUse">
      <stop stop-color="#EA6100" stop-opacity="0.3"/>
      <stop offset="0.7" stop-color="#EA6100" stop-opacity="0"/>
    </linearGradient>
    <radialGradient id="paint3_radial_2429_5432" cx="0" cy="0" r="1" gradientUnits="userSpaceOnUse" gradientTransform="translate(7.92131 4.51611) scale(7.91193)">
      <stop stop-color="#3E2723" stop-opacity="0.2"/>
      <stop offset="1" stop-color="#3E2723" stop-opacity="0"/>
    </radialGradient>
    <radialGradient id="paint4_radial_2429_5432" cx="0" cy="0" r="1" gradientUnits="userSpaceOnUse" gradientTransform="translate(1.30749 3.81055) scale(7.33805)">
      <stop stop-color="#3E2723" stop-opacity="0.2"/>
      <stop offset="1" stop-color="#3E2723" stop-opacity="0"/>
    </radialGradient>
    <radialGradient id="paint5_radial_2429_5432" cx="0" cy="0" r="1" gradientUnits="userSpaceOnUse" gradientTransform="translate(8.2601 8.28826) scale(8.26942)">
      <stop stop-color="#263238" stop-opacity="0.2"/>
      <stop offset="1" stop-color="#263238" stop-opacity="0"/>
    </radialGradient>
    <radialGradient id="paint6_radial_2429_5432" cx="0" cy="0" r="1" gradientUnits="userSpaceOnUse" gradientTransform="translate(2.47424 2.25786) scale(16.6329)">
      <stop stop-color="white" stop-opacity="0.1"/>
      <stop offset="1" stop-color="white" stop-opacity="0"/>
    </radialGradient>
  </defs>
</svg>
