<svg
      xmlns="http://www.w3.org/2000/svg"
      xmlns:xlink="http://www.w3.org/1999/xlink"
      viewBox="0 0 512 512"
      width="48"
      height="48"
      preserveAspectRatio="xMidYMid meet"
      
      id="linux-white"
    >
      <defs>
        <clipPath id="__lottie_element_11905">
          <rect width="512" height="512" x="0" y="0" />
        </clipPath>
      </defs>
      <g clipPath="url(#__lottie_element_11905)">
        <g
          transform="matrix(1,0,0,1,81.44999694824219,41.550018310546875)"
          opacity="1"
          
        >
          <g opacity="1" transform="matrix(1,0,0,1,174.5500030517578,215.5)">
            <path
              fill="#ffffff"
              fill-opacity="1"
              d=" M161.6999969482422,116.55000305175781 C159.60000610351562,112.3499984741211 157.5,108.1500015258789 157.5,103.94999694824219 C157.5,95.55000305175781 153.3000030517578,89.25 147,82.94999694824219 C144.89999389648438,80.8499984741211 140.6999969482422,78.75 138.60000610351562,78.75 C151.1999969482422,40.95000076293945 132.3000030517578,3.1500000953674316 111.30000305175781,-24.149999618530273 C94.5,-49.349998474121094 69.30000305175781,-68.25 71.4000015258789,-101.8499984741211 C71.4000015258789,-141.75 75.5999984741211,-215.25 2.0999999046325684,-208.9499969482422 C-73.5,-204.75 -52.5,-127.05000305175781 -54.599998474121094,-99.75 C-54.599998474121094,-76.6500015258789 -65.0999984741211,-53.54999923706055 -81.9000015258789,-34.650001525878906 C-86.0999984741211,-30.450000762939453 -90.30000305175781,-24.149999618530273 -92.4000015258789,-19.950000762939453 C-113.4000015258789,5.25 -123.9000015258789,38.849998474121094 -123.9000015258789,70.3499984741211 C-128.10000610351562,74.55000305175781 -132.3000030517578,78.75 -134.39999389648438,82.94999694824219 C-136.5,85.05000305175781 -138.60000610351562,87.1500015258789 -138.60000610351562,89.25 C-140.6999969482422,91.3499984741211 -144.89999389648438,93.44999694824219 -149.10000610351562,95.55000305175781 C-157.5,97.6500015258789 -163.8000030517578,101.8499984741211 -168,110.25 C-170.10000610351562,116.55000305175781 -172.1999969482422,124.94999694824219 -170.10000610351562,133.35000610351562 C-168,137.5500030517578 -168,141.75 -170.10000610351562,148.0500030517578 C-174.3000030517578,156.4499969482422 -174.3000030517578,166.9499969482422 -170.10000610351562,177.4499969482422 C-163.8000030517578,185.85000610351562 -153.3000030517578,187.9499969482422 -138.60000610351562,190.0500030517578 C-128.10000610351562,190.0500030517578 -115.5,194.25 -105,198.4499969482422 C-94.5,204.75 -81.9000015258789,208.9499969482422 -69.30000305175781,208.9499969482422 C-63,208.9499969482422 -54.599998474121094,206.85000610351562 -48.29999923706055,204.75 C-42,200.5500030517578 -37.79999923706055,196.35000610351562 -35.70000076293945,190.0500030517578 C-27.299999237060547,190.0500030517578 -14.699999809265137,185.85000610351562 0,185.85000610351562 C12.600000381469727,185.85000610351562 25.200000762939453,190.0500030517578 42,187.9499969482422 C42,190.0500030517578 42,192.14999389648438 44.099998474121094,194.25 C48.29999923706055,204.75 58.79999923706055,213.14999389648438 71.4000015258789,215.25 C71.4000015258789,215.25 75.5999984741211,215.25 75.5999984741211,215.25 C92.4000015258789,213.14999389648438 109.19999694824219,204.75 119.69999694824219,192.14999389648438 C128.10000610351562,183.75 138.60000610351562,177.4499969482422 149.10000610351562,173.25 C161.6999969482422,166.9499969482422 170.10000610351562,162.75 172.1999969482422,152.25 C174.3000030517578,137.5500030517578 170.10000610351562,129.14999389648438 161.6999969482422,116.55000305175781z M16.799999237060547,-152.25 C29.399999618530273,-150.14999389648438 39.900001525878906,-139.64999389648438 37.79999923706055,-127.05000305175781 C37.79999923706055,-120.75 35.70000076293945,-114.44999694824219 31.5,-108.1500015258789 C31.5,-108.1500015258789 29.399999618530273,-108.1500015258789 29.399999618530273,-108.1500015258789 C25.200000762939453,-110.25 23.100000381469727,-110.25 21,-112.3499984741211 C23.100000381469727,-114.44999694824219 23.100000381469727,-118.6500015258789 25.200000762939453,-122.8499984741211 C25.200000762939453,-131.25 21,-137.5500030517578 16.799999237060547,-137.5500030517578 C10.5,-137.5500030517578 6.300000190734863,-131.25 6.300000190734863,-122.8499984741211 C6.300000190734863,-122.8499984741211 6.300000190734863,-120.75 6.300000190734863,-120.75 C4.199999809265137,-122.8499984741211 0,-122.8499984741211 -2.0999999046325684,-124.94999694824219 C-2.0999999046325684,-124.94999694824219 -2.0999999046325684,-127.05000305175781 -2.0999999046325684,-127.05000305175781 C-4.199999809265137,-137.5500030517578 4.199999809265137,-150.14999389648438 16.799999237060547,-152.25z M10.5,-110.25 C12.600000381469727,-108.1500015258789 16.799999237060547,-106.05000305175781 18.899999618530273,-106.05000305175781 C21,-106.05000305175781 25.200000762939453,-103.94999694824219 27.299999237060547,-101.8499984741211 C31.5,-99.75 35.70000076293945,-97.6500015258789 35.70000076293945,-91.3499984741211 C35.70000076293945,-85.05000305175781 29.399999618530273,-78.75 16.799999237060547,-74.55000305175781 C12.600000381469727,-72.44999694824219 10.5,-72.44999694824219 8.399999618530273,-70.3499984741211 C2.0999999046325684,-66.1500015258789 -4.199999809265137,-64.05000305175781 -12.600000381469727,-64.05000305175781 C-18.899999618530273,-64.05000305175781 -25.200000762939453,-68.25 -29.399999618530273,-72.44999694824219 C-31.5,-74.55000305175781 -33.599998474121094,-76.6500015258789 -37.79999923706055,-78.75 C-39.900001525878906,-80.8499984741211 -44.099998474121094,-85.05000305175781 -46.20000076293945,-91.3499984741211 C-46.20000076293945,-93.44999694824219 -44.099998474121094,-95.55000305175781 -42,-97.6500015258789 C-35.70000076293945,-101.8499984741211 -33.599998474121094,-103.94999694824219 -31.5,-106.05000305175781 C-31.5,-106.05000305175781 -29.399999618530273,-108.1500015258789 -29.399999618530273,-108.1500015258789 C-25.200000762939453,-114.44999694824219 -16.799999237060547,-118.6500015258789 -8.399999618530273,-118.6500015258789 C-2.0999999046325684,-116.55000305175781 4.199999809265137,-114.44999694824219 10.5,-110.25z M-33.599998474121094,-148.0500030517578 C-25.200000762939453,-148.0500030517578 -18.899999618530273,-139.64999389648438 -16.799999237060547,-124.94999694824219 C-16.799999237060547,-124.94999694824219 -16.799999237060547,-120.75 -16.799999237060547,-120.75 C-18.899999618530273,-120.75 -23.100000381469727,-118.6500015258789 -25.200000762939453,-116.55000305175781 C-25.200000762939453,-116.55000305175781 -25.200000762939453,-120.75 -25.200000762939453,-120.75 C-25.200000762939453,-127.05000305175781 -29.399999618530273,-133.35000610351562 -33.599998474121094,-131.25 C-37.79999923706055,-131.25 -39.900001525878906,-124.94999694824219 -39.900001525878906,-118.6500015258789 C-39.900001525878906,-114.44999694824219 -37.79999923706055,-112.3499984741211 -35.70000076293945,-110.25 C-35.70000076293945,-110.25 -37.79999923706055,-108.1500015258789 -39.900001525878906,-108.1500015258789 C-44.099998474121094,-112.3499984741211 -48.29999923706055,-118.6500015258789 -48.29999923706055,-124.94999694824219 C-48.29999923706055,-137.5500030517578 -42,-148.0500030517578 -33.599998474121094,-148.0500030517578z M-54.599998474121094,190.0500030517578 C-69.30000305175781,196.35000610351562 -88.19999694824219,194.25 -100.80000305175781,185.85000610351562 C-113.4000015258789,179.5500030517578 -123.9000015258789,177.4499969482422 -138.60000610351562,177.4499969482422 C-149.10000610351562,175.35000610351562 -159.60000610351562,175.35000610351562 -161.6999969482422,171.14999389648438 C-163.8000030517578,166.9499969482422 -163.8000030517578,160.64999389648438 -159.60000610351562,150.14999389648438 C-157.5,143.85000610351562 -157.5,137.5500030517578 -159.60000610351562,131.25 C-161.6999969482422,124.94999694824219 -161.6999969482422,120.75 -159.60000610351562,114.44999694824219 C-157.5,108.1500015258789 -153.3000030517578,106.05000305175781 -147,103.94999694824219 C-140.6999969482422,101.8499984741211 -136.5,99.75 -132.3000030517578,95.55000305175781 C-130.1999969482422,93.44999694824219 -128.10000610351562,91.3499984741211 -126,87.1500015258789 C-119.69999694824219,78.75 -115.5,74.55000305175781 -109.19999694824219,74.55000305175781 C-96.5999984741211,76.6500015258789 -86.0999984741211,95.55000305175781 -77.69999694824219,114.44999694824219 C-73.5,120.75 -69.30000305175781,129.14999389648438 -63,135.4499969482422 C-54.599998474121094,145.9499969482422 -44.099998474121094,160.64999389648438 -44.099998474121094,169.0500030517578 C-44.099998474121094,179.5500030517578 -48.29999923706055,185.85000610351562 -54.599998474121094,190.0500030517578z M48.29999923706055,143.85000610351562 C48.29999923706055,145.9499969482422 48.29999923706055,145.9499969482422 46.20000076293945,148.0500030517578 C21,166.9499969482422 -12.600000381469727,169.0500030517578 -39.900001525878906,154.35000610351562 C-39.900001525878906,154.35000610351562 -52.5,135.4499969482422 -52.5,135.4499969482422 C-33.599998474121094,133.35000610351562 -37.79999923706055,108.1500015258789 -77.69999694824219,82.94999694824219 C-119.69999694824219,55.650001525878906 -90.30000305175781,5.25 -75.5999984741211,-17.850000381469727 C-73.5,-19.950000762939453 -73.5,-17.850000381469727 -81.9000015258789,-1.0499999523162842 C-88.19999694824219,11.550000190734863 -100.80000305175781,43.04999923706055 -84,66.1500015258789 C-84,49.349998474121094 -79.80000305175781,32.54999923706055 -73.5,15.75 C-58.79999923706055,-11.550000190734863 -48.29999923706055,-43.04999923706055 -42,-74.55000305175781 C-39.900001525878906,-72.44999694824219 -39.900001525878906,-72.44999694824219 -37.79999923706055,-72.44999694824219 C-35.70000076293945,-70.3499984741211 -33.599998474121094,-68.25 -31.5,-68.25 C-27.299999237060547,-61.95000076293945 -18.899999618530273,-59.849998474121094 -12.600000381469727,-59.849998474121094 C-12.600000381469727,-59.849998474121094 -10.5,-59.849998474121094 -10.5,-59.849998474121094 C-2.0999999046325684,-59.849998474121094 6.300000190734863,-61.95000076293945 12.600000381469727,-68.25 C14.699999809265137,-70.3499984741211 16.799999237060547,-72.44999694824219 21,-72.44999694824219 C27.299999237060547,-74.55000305175781 33.599998474121094,-78.75 39.900001525878906,-85.05000305175781 C48.29999923706055,-57.75 56.70000076293945,-32.54999923706055 69.30000305175781,-9.449999809265137 C77.69999694824219,7.349999904632568 84,24.149999618530273 88.19999694824219,43.04999923706055 C94.5,43.04999923706055 102.9000015258789,45.150001525878906 109.19999694824219,49.349998474121094 C126,57.75 132.3000030517578,64.05000305175781 130.1999969482422,74.55000305175781 C130.1999969482422,74.55000305175781 126,74.55000305175781 126,74.55000305175781 C126,68.25 121.80000305175781,61.95000076293945 107.0999984741211,55.650001525878906 C92.4000015258789,49.349998474121094 79.80000305175781,49.349998474121094 75.5999984741211,64.05000305175781 C73.5,64.05000305175781 71.4000015258789,66.1500015258789 69.30000305175781,66.1500015258789 C52.5,74.55000305175781 52.5,97.6500015258789 50.400001525878906,120.75 C52.5,129.14999389648438 50.400001525878906,135.4499969482422 48.29999923706055,143.85000610351562z M144.89999389648438,156.4499969482422 C132.3000030517578,160.64999389648438 121.80000305175781,169.0500030517578 113.4000015258789,179.5500030517578 C105,192.14999389648438 90.30000305175781,200.5500030517578 73.5,198.4499969482422 C65.0999984741211,198.4499969482422 56.70000076293945,192.14999389648438 54.599998474121094,183.75 C52.5,171.14999389648438 52.5,158.5500030517578 58.79999923706055,145.9499969482422 C60.900001525878906,137.5500030517578 63,131.25 65.0999984741211,122.8499984741211 C67.19999694824219,97.6500015258789 67.19999694824219,82.94999694824219 77.69999694824219,76.6500015258789 C77.69999694824219,87.1500015258789 84,93.44999694824219 92.4000015258789,97.6500015258789 C102.9000015258789,97.6500015258789 113.4000015258789,95.55000305175781 121.80000305175781,87.1500015258789 C121.80000305175781,87.1500015258789 126,87.1500015258789 126,87.1500015258789 C132.3000030517578,87.1500015258789 136.5,87.1500015258789 140.6999969482422,91.3499984741211 C144.89999389648438,95.55000305175781 147,101.8499984741211 147,106.05000305175781 C147,112.3499984741211 151.1999969482422,118.6500015258789 153.3000030517578,124.94999694824219 C163.8000030517578,135.4499969482422 163.8000030517578,141.75 163.8000030517578,143.85000610351562 C161.6999969482422,148.0500030517578 153.3000030517578,152.25 144.89999389648438,156.4499969482422z M-44.099998474121094,-95.55000305175781 C-46.20000076293945,-95.55000305175781 -46.20000076293945,-95.55000305175781 -46.20000076293945,-93.44999694824219 C-46.20000076293945,-93.44999694824219 -46.20000076293945,-91.3499984741211 -44.099998474121094,-91.3499984741211 C-42,-91.3499984741211 -42,-89.25 -42,-89.25 C-35.70000076293945,-80.8499984741211 -25.200000762939453,-76.6500015258789 -12.600000381469727,-74.55000305175781 C-2.0999999046325684,-76.6500015258789 8.399999618530273,-78.75 18.899999618530273,-87.1500015258789 C18.899999618530273,-87.1500015258789 31.5,-93.44999694824219 31.5,-93.44999694824219 C33.599998474121094,-93.44999694824219 33.599998474121094,-95.55000305175781 33.599998474121094,-95.55000305175781 C33.599998474121094,-97.6500015258789 33.599998474121094,-97.6500015258789 31.5,-97.6500015258789 C27.299999237060547,-95.55000305175781 21,-93.44999694824219 16.799999237060547,-91.3499984741211 C8.399999618530273,-85.05000305175781 -2.0999999046325684,-80.8499984741211 -12.600000381469727,-80.8499984741211 C-23.100000381469727,-80.8499984741211 -31.5,-87.1500015258789 -37.79999923706055,-93.44999694824219 C-39.900001525878906,-93.44999694824219 -42,-95.55000305175781 -44.099998474121094,-95.55000305175781z"
            />
          </g>
        </g>
      </g>
    </svg>