<svg
      xmlns="http://www.w3.org/2000/svg"
      xmlns:xlink="http://www.w3.org/1999/xlink"
      viewBox="0 0 700 700"
      width="48"
      height="48"
      preserveAspectRatio="xMidYMid meet"
      id="Windows"
    >
      <defs>
        <clipPath id="__lottie_element_2148">
          <rect width="700" height="700" x="0" y="0" />
        </clipPath>
      </defs>
      <g clipPath="url(#__lottie_element_2148)">
        <g
          transform="matrix(1,0,0,1,101.32899475097656,101.33000183105469)"
          opacity="1"
        >
          <g
            opacity="1"
            transform="matrix(1,0,0,1,366.3429870605469,116.61599731445312)"
          >
            <path
              fill="rgb(144,195,0)"
              fill-opacity="1"
              d=" M-130.7480010986328,-77.14199829101562 C-130.7480010986328,-77.14199829101562 130.7480010986328,-116.36599731445312 130.7480010986328,-116.36599731445312 C130.7480010986328,-116.36599731445312 130.7480010986328,116.36599731445312 130.7480010986328,116.36599731445312 C130.7480010986328,116.36599731445312 -130.7480010986328,116.36599731445312 -130.7480010986328,116.36599731445312 C-130.7480010986328,116.36599731445312 -130.7480010986328,-77.14199829101562 -130.7480010986328,-77.14199829101562z"
            />
          </g>
          <g
            opacity="1"
            transform="matrix(1,0,0,1,100.48999786376953,139.71299743652344)"
          >
            <path
              fill="rgb(248,103,44)"
              fill-opacity="1"
              d=" M-100.23999786376953,-66.24500274658203 C-100.23999786376953,-66.24500274658203 100.23999786376953,-95.88200378417969 100.23999786376953,-95.88200378417969 C100.23999786376953,-95.88200378417969 100.23999786376953,95.88200378417969 100.23999786376953,95.88200378417969 C100.23999786376953,95.88200378417969 -100.23999786376953,95.88200378417969 -100.23999786376953,95.88200378417969 C-100.23999786376953,95.88200378417969 -100.23999786376953,-66.24500274658203 -100.23999786376953,-66.24500274658203z"
            />
          </g>
          <g
            opacity="1"
            transform="matrix(1,0,0,1,366.3429870605469,383.7760009765625)"
          >
            <path
              fill="rgb(255,196,0)"
              fill-opacity="1"
              d=" M-130.7480010986328,74.08999633789062 C-130.7480010986328,74.08999633789062 130.7480010986328,113.31400299072266 130.7480010986328,113.31400299072266 C130.7480010986328,113.31400299072266 130.7480010986328,-113.31500244140625 130.7480010986328,-113.31500244140625 C130.7480010986328,-113.31500244140625 -130.7480010986328,-113.31500244140625 -130.7480010986328,-113.31500244140625 C-130.7480010986328,-113.31500244140625 -130.7480010986328,74.08999633789062 -130.7480010986328,74.08999633789062z"
            />
          </g>
          <g
            opacity="1"
            transform="matrix(1,0,0,1,100.48999786376953,361.9849853515625)"
          >
            <path
              fill="rgb(0,180,242)"
              fill-opacity="1"
              d=" M-100.23999786376953,61.887001037597656 C-100.23999786376953,61.887001037597656 100.23999786376953,91.52300262451172 100.23999786376953,91.52300262451172 C100.23999786376953,91.52300262451172 100.23999786376953,-91.52300262451172 100.23999786376953,-91.52300262451172 C100.23999786376953,-91.52300262451172 -100.23999786376953,-91.52300262451172 -100.23999786376953,-91.52300262451172 C-100.23999786376953,-91.52300262451172 -100.23999786376953,61.887001037597656 -100.23999786376953,61.887001037597656z"
            />
          </g>
        </g>
      </g>
    </svg>
